<svg xmlns="http://www.w3.org/2000/svg" width="63.84" height="75.89" viewBox="0 0 63.84 75.89">
  <title>n2</title>
  <g>
    <path d="M56.35,0h.48a2,2,0,0,1,2,2l5,53.53a2,2,0,0,1-2,2h0a1.76,1.76,0,0,1-.46.06l-48.69,3A5.67,5.67,0,0,0,7,65.9c0,.18,0,.32,0,.41s0,.1,0,.16a5.65,5.65,0,0,0,5.64,5.42l47.19-3V63.36a2,2,0,0,1,4,0v7.53a2,2,0,0,1-2,2l-49.49,3a3,3,0,0,1-.31,0,9.66,9.66,0,0,1-9-9.63c0-.11,0-.23,0-.34C3,60,0,17.78,0,12.86a1.49,1.49,0,0,1,0-.21A9.66,9.66,0,0,1,9.65,3h0"/>
    <path d="M49.33,48.19l-7.23.59L22,25.39l2,24.3-7.29.59L14.5,13.83l7.28-.59L41.1,36,38.78,11.79,46,11.2Z" fill="#fff"/>
  </g>
</svg>
